<?xml version="1.0" encoding="utf-8"?>
<!-- Generator: Adobe Illustrator 24.0.1, SVG Export Plug-In . SVG Version: 6.00 Build 0)  -->
<svg version="1.1" id="Capa_1" xmlns="http://www.w3.org/2000/svg" xmlns:xlink="http://www.w3.org/1999/xlink" x="0px" y="0px"
	 viewBox="0 0 20.4 16" style="enable-background:new 0 0 20.4 16;" xml:space="preserve">
<style type="text/css">
	.st0{fill:#FFFFFF;}
</style>
<g>
	<g>
		<path class="st0" d="M2.1,5c0.3,0.2,1,0.7,2.3,1.6s2.3,1.6,2.9,2C7.4,8.7,7.5,8.8,7.8,9C8,9.1,8.2,9.3,8.4,9.4S8.7,9.6,9,9.8
			c0.2,0.1,0.4,0.2,0.6,0.3c0.2,0.1,0.4,0.1,0.6,0.1h0h0c0.2,0,0.4,0,0.6-0.1c0.2-0.1,0.4-0.2,0.6-0.3c0.2-0.1,0.4-0.3,0.6-0.4
			c0.2-0.1,0.4-0.3,0.6-0.4C12.8,8.8,13,8.7,13,8.6c0.7-0.5,2.4-1.7,5.2-3.6c0.5-0.4,1-0.8,1.4-1.4c0.4-0.5,0.6-1.1,0.6-1.7
			c0-0.5-0.2-0.9-0.5-1.3c-0.4-0.3-0.8-0.5-1.3-0.5H1.9c-0.6,0-1,0.2-1.3,0.6C0.3,1.1,0.1,1.6,0.1,2.1c0,0.5,0.2,1,0.6,1.5
			C1.2,4.2,1.6,4.7,2.1,5z"/>
		<path class="st0" d="M19.1,6.2c-2.5,1.7-4.3,3-5.6,3.9c-0.4,0.3-0.8,0.6-1,0.7s-0.6,0.4-1.1,0.5c-0.4,0.2-0.9,0.3-1.2,0.3h0h0
			c-0.4,0-0.8-0.1-1.2-0.3c-0.4-0.2-0.8-0.4-1.1-0.5c-0.3-0.2-0.6-0.4-1-0.7C5.8,9.3,4,8,1.3,6.2c-0.4-0.3-0.8-0.6-1.1-1v8.9
			c0,0.5,0.2,0.9,0.5,1.3c0.3,0.3,0.8,0.5,1.3,0.5h16.5c0.5,0,0.9-0.2,1.3-0.5c0.3-0.3,0.5-0.8,0.5-1.3V5.2
			C19.9,5.6,19.5,5.9,19.1,6.2z"/>
	</g>
</g>
</svg>
