<?xml version="1.0" encoding="utf-8"?>
<!-- Generator: Adobe Illustrator 24.0.1, SVG Export Plug-In . SVG Version: 6.00 Build 0)  -->
<svg version="1.1" id="Capa_1" xmlns="http://www.w3.org/2000/svg" xmlns:xlink="http://www.w3.org/1999/xlink" x="0" y="0"
	 viewBox="0 0 56.7 56.7" style="enable-background:new 0 0 56.7 56.7;" xml:space="preserve" width="10px" height="10px">
<style type="text/css">
	.st0{fill:#3366CC;}
</style>
<g>
	<path class="st0" d="M56,27.5c0,14.8-12.1,26.8-27.2,26.8c-4.7,0-9.2-1.3-13.1-3.4L0.7,56l4.9-14.4c-2.5-4.1-4-8.8-4-13.9
		c0.2-14.9,12.2-27,27.2-27S56,12.8,56,27.5z M28.8,5C16.2,5,6.1,15.1,6.1,27.5c0,4.9,1.6,9.5,4.3,13.3l-2.9,8.5l8.8-2.7
		C20,49,24.3,50.4,29,50.4c12.6,0,22.9-10.1,22.9-22.7C51.7,15.1,41.4,5,28.8,5z M42.5,33.8c-0.2-0.4-0.5-0.4-1.3-0.7s-4-2-4.5-2.2
		c-0.5-0.2-1.1-0.4-1.4,0.4c-0.4,0.7-1.8,2.2-2.2,2.5s-0.7,0.5-1.4,0.2c-0.7-0.4-2.9-1.1-5.4-3.2c-2-1.8-3.2-4-3.8-4.5
		c-0.4-0.7,0-1.1,0.4-1.3c0.4-0.4,0.7-0.7,1.1-1.1c0.4-0.4,0.4-0.7,0.7-1.1c0.2-0.4,0.2-0.9,0-1.1c-0.2-0.4-1.4-3.6-2-4.9
		c-0.5-1.3-1.1-1.1-1.4-1.1c-0.4,0-0.9,0-1.3,0c-0.4,0-1.1,0.2-1.8,0.9s-2.3,2.3-2.3,5.6s2.3,6.3,2.7,6.8c0.4,0.4,4.7,7.4,11.3,9.9
		c6.8,2.7,6.8,1.8,7.9,1.6c1.3-0.2,4-1.6,4.5-3.1C42.7,35.5,42.7,34,42.5,33.8z"/>
</g>
</svg>
